# Blender v2.76 (sub 0) OBJ File: ''
# www.blender.org
mtllib t.mtl
o Cube.001
v -5.225293 0.326337 -7.233812
v -5.225293 2.326337 -7.233812
v -5.225293 0.326337 -7.767162
v -5.225293 2.326337 -7.767162
v 5.225293 0.326337 -7.233812
v 5.225293 2.326337 -7.233812
v 5.225293 0.326337 -7.767162
v 5.225293 2.326337 -7.767162
vt 1.000000 0.000000
vt 1.000000 1.000000
vt 0.000000 1.000000
vt 0.000000 0.000000
vn -1.000000 0.000000 0.000000
vn 0.000000 0.000000 -1.000000
vn 1.000000 0.000000 0.000000
vn 0.000000 0.000000 1.000000
vn 0.000000 -1.000000 0.000000
vn 0.000000 1.000000 0.000000
usemtl None
s off
f 4/1/1 3/2/1 1/3/1
f 8/1/2 7/2/2 3/3/2
f 6/1/3 5/2/3 7/3/3
f 2/1/4 1/2/4 5/3/4
f 3/1/5 7/2/5 5/3/5
f 8/1/6 4/2/6 2/3/6
f 2/4/1 4/1/1 1/3/1
f 4/4/2 8/1/2 3/3/2
f 8/4/3 6/1/3 7/3/3
f 6/4/4 2/1/4 5/3/4
f 1/4/5 3/1/5 5/3/5
f 6/4/6 8/1/6 2/3/6
o Cube
v 7.799542 -0.755230 -7.799541
v 7.799542 -0.755230 7.799542
v -7.799543 -0.755230 7.799541
v -7.799539 -0.755230 -7.799545
v 7.799546 0.493481 -7.799538
v 7.799537 0.493481 7.799547
v -7.799545 0.493481 7.799539
v -7.799541 0.493481 -7.799542
vt 1.000000 0.000000
vt 1.000000 1.000000
vt 0.000000 1.000000
vt 0.000000 0.000000
vn 0.000000 -1.000000 0.000000
vn 0.000000 1.000000 0.000000
vn 1.000000 0.000000 0.000000
vn -0.000000 0.000000 1.000000
vn -1.000000 -0.000000 -0.000000
vn 0.000000 0.000000 -1.000000
usemtl Material
s off
f 10/5/7 11/6/7 12/7/7
f 16/5/8 15/6/8 14/7/8
f 13/5/9 14/6/9 10/7/9
f 14/5/10 15/6/10 11/7/10
f 11/8/11 15/5/11 16/6/11
f 9/5/12 12/6/12 16/7/12
f 9/8/7 10/5/7 12/7/7
f 13/8/8 16/5/8 14/7/8
f 9/8/9 13/5/9 10/7/9
f 10/8/10 14/5/10 11/7/10
f 12/7/11 11/8/11 16/6/11
f 13/8/12 9/5/12 16/7/12
